<?xml version="1.0" encoding="utf-8"?>
<svg xmlns="http://www.w3.org/2000/svg" viewBox="-3.613 39.747 503.613 350.648">
  <g transform="matrix(2.002604, 0, 0, 2.002604, -451.504584, -200.529956)" style="">
    <path d="M 360.553 125.038 C 365.572 125.536 368.822 127.929 372.803 130.788 C 373.44 131.218 374.077 131.649 374.733 132.092 C 377.619 134.143 379.36 135.444 380.475 138.866 C 380.514 139.941 380.514 139.941 380.553 141.038 C 379.563 141.698 378.573 142.358 377.553 143.038 C 377.113 145.988 377.113 145.988 377.213 149.507 C 377.212 150.17 377.212 150.834 377.212 151.518 C 377.214 153.715 377.237 155.911 377.261 158.108 C 377.266 159.63 377.27 161.151 377.273 162.673 C 377.285 166.681 377.314 170.689 377.347 174.697 C 377.378 178.786 377.392 182.875 377.407 186.963 C 377.439 194.988 377.49 203.013 377.553 211.038 C 381.373 212.095 384.833 212.137 388.803 212.1 C 390.067 212.091 391.33 212.082 392.632 212.073 C 394.078 212.055 394.078 212.055 395.553 212.038 C 395.553 209.444 394.669 208.646 393.116 206.6 C 389.365 201.652 388.855 197.108 389.553 191.038 C 392.08 182.949 396.221 177.377 403.553 173.038 C 412.615 169.025 420.555 169.846 429.807 172.563 C 434.832 174.017 439.758 175.047 444.803 173.225 C 446.624 171.99 448.076 170.663 449.553 169.038 C 453.808 170.532 455.575 173.598 457.803 177.288 C 458.167 177.848 458.531 178.409 458.905 178.987 C 461.247 182.798 462.161 185.584 461.553 190.038 C 457.905 193.79 453.913 195.788 448.714 196.338 C 442.659 196.361 437.208 195.87 431.303 194.475 C 425.896 193.217 420.921 192.127 415.553 194.038 C 412.265 196.765 411.656 198.318 411.053 202.538 C 411.63 206.575 412.7 208.184 415.553 211.038 C 418.017 212.269 419.691 212.189 422.446 212.227 C 423.973 212.252 423.973 212.252 425.53 212.278 C 426.632 212.291 427.734 212.305 428.87 212.319 C 429.997 212.337 431.123 212.356 432.284 212.375 C 437.122 212.454 441.96 212.521 446.798 212.59 C 450.322 212.641 453.846 212.699 457.37 212.756 C 458.474 212.77 459.578 212.784 460.716 212.798 C 461.73 212.814 462.745 212.831 463.79 212.848 C 464.688 212.861 465.586 212.873 466.511 212.886 C 468.553 213.038 468.553 213.038 469.553 214.038 C 469.196 219.943 467.235 224.295 464.491 229.475 C 463.925 230.572 463.925 230.572 463.348 231.692 C 462.426 233.479 461.491 235.259 460.553 237.038 C 455.803 236.288 455.803 236.288 453.553 234.038 C 450.555 233.725 450.555 233.725 446.983 233.766 C 446.308 233.761 445.633 233.756 444.938 233.751 C 443.468 233.74 441.999 233.735 440.529 233.733 C 438.195 233.729 435.86 233.712 433.526 233.692 C 426.887 233.637 420.247 233.606 413.608 233.581 C 409.547 233.565 405.485 233.535 401.424 233.497 C 399.884 233.485 398.344 233.479 396.804 233.479 C 387.996 233.478 379.966 232.991 371.553 230.038 C 371.223 231.028 370.893 232.018 370.553 233.038 C 367.969 234.474 366.369 235.204 363.428 234.604 C 360.299 233.988 357.35 233.887 354.17 233.799 C 337.896 233.29 337.896 233.29 331.468 226.995 C 329.738 225.064 328.115 223.106 326.553 221.038 C 323.439 224.032 320.669 227.224 317.921 230.549 C 316.19 232.433 315.1 232.998 312.545 233.182 C 311.72 233.192 310.896 233.201 310.047 233.211 C 309.112 233.225 308.177 233.238 307.214 233.252 C 306.199 233.263 305.185 233.273 304.139 233.284 C 301.995 233.317 299.85 233.35 297.706 233.383 C 294.322 233.431 290.939 233.475 287.555 233.514 C 284.291 233.554 281.028 233.606 277.764 233.659 C 276.762 233.667 275.76 233.676 274.727 233.684 C 264.416 233.76 264.416 233.76 255.741 238.663 C 251.564 244.477 249.528 250.898 250.553 258.038 C 252.157 264.302 254.758 269.107 260.178 272.85 C 265.868 274.852 271.206 274.541 277.053 273.288 C 279.924 271.852 280.452 270.976 281.553 268.038 C 282.213 267.378 282.873 266.718 283.553 266.038 C 284.543 266.038 285.533 266.038 286.553 266.038 C 287.33 272.097 284.938 276.219 281.553 281.038 C 277.2 285.881 271.987 288.669 265.569 289.358 C 255.696 289.706 248.498 287.72 240.803 281.475 C 234.199 275.233 229.891 267.356 229.315 258.28 C 228.929 243.235 232.856 233.373 243.311 222.151 C 249.127 216.782 255.792 214.162 263.553 213.038 C 263.53 211.819 263.507 210.601 263.483 209.346 C 263.464 207.723 263.446 206.099 263.428 204.475 C 263.412 203.675 263.395 202.875 263.378 202.051 C 263.328 195.976 263.86 190.859 267.053 185.538 C 273.035 179.556 280.194 175.532 287.678 171.725 C 288.663 171.219 288.663 171.219 289.668 170.702 C 298.224 166.479 307.022 164.783 316.553 166.038 C 328.382 170.151 336.015 176.942 341.553 188.038 C 343.508 192.602 343.773 196.195 342.553 201.038 C 340.155 204.638 337.366 207.733 334.553 211.038 C 341.153 211.698 347.753 212.358 354.553 213.038 C 354.591 210.385 354.591 210.385 354.629 207.679 C 354.714 201.744 354.803 195.809 354.893 189.874 C 354.947 186.287 355.001 182.699 355.051 179.111 C 355.165 170.974 355.301 162.839 355.476 154.703 C 355.525 152.355 355.571 150.006 355.612 147.657 C 355.667 144.714 355.748 141.773 355.839 138.831 C 355.851 137.995 355.863 137.16 355.875 136.299 C 356.067 131.29 356.988 128.595 360.553 125.038 Z M 281.553 192.038 C 280.193 196.481 280.569 200.755 280.928 205.35 C 281.019 206.584 281.109 207.817 281.202 209.088 C 281.231 211.922 281.231 211.922 282.553 213.038 C 285.269 213.139 287.959 213.177 290.675 213.17 C 291.897 213.172 291.897 213.172 293.145 213.173 C 294.872 213.174 296.6 213.172 298.327 213.168 C 300.976 213.163 303.625 213.168 306.274 213.174 C 307.949 213.174 309.624 213.172 311.3 213.17 C 312.493 213.173 312.493 213.173 313.711 213.177 C 317.763 213.255 317.763 213.255 321.553 212.038 C 320.749 204.241 316.102 199.164 310.35 194.096 C 304.895 189.904 301.155 188.87 294.178 188.788 C 292.871 188.762 291.564 188.736 290.218 188.709 C 286.336 189.057 284.457 189.449 281.553 192.038 Z" style="fill: rgb(61, 58, 48);"/>
    <path d="M 318.553 227.038 C 318.553 228.028 318.553 229.018 318.553 230.038 C 315.741 232.782 313.692 233.414 309.82 233.438 C 308.885 233.452 307.95 233.465 306.987 233.479 C 305.983 233.479 304.979 233.479 303.944 233.479 C 302.383 233.499 302.383 233.499 300.79 233.519 C 297.461 233.56 294.133 233.582 290.803 233.6 C 287.489 233.624 284.174 233.652 280.86 233.692 C 278.798 233.716 276.737 233.731 274.676 233.736 C 264.392 233.761 264.392 233.761 255.741 238.663 C 251.564 244.477 249.528 250.898 250.553 258.038 C 252.148 264.267 254.714 269.145 260.178 272.788 C 264.605 274.427 268.865 274.769 273.553 275.038 C 273.553 275.368 273.553 275.698 273.553 276.038 C 266.873 276.364 261.363 276.622 255.553 273.038 C 254.116 270.35 254.116 270.35 253.553 268.038 C 252.893 268.038 252.233 268.038 251.553 268.038 C 248.294 261.111 247.537 254.65 248.553 247.038 C 249.871 243.456 251.517 240.26 253.553 237.038 C 254.213 237.038 254.873 237.038 255.553 237.038 C 255.883 236.048 256.213 235.058 256.553 234.038 C 261.056 231.376 265.989 231.707 271.061 231.659 C 272.443 231.633 272.443 231.633 273.853 231.607 C 276.795 231.554 279.736 231.514 282.678 231.475 C 300.99 232.863 300.99 232.863 317.323 228.496 C 317.729 228.015 318.135 227.534 318.553 227.038 Z" fill="#B09974"/>
    <path d="M 378.553 231.038 C 388.133 231.014 397.712 230.997 407.291 230.986 C 411.739 230.981 416.187 230.974 420.636 230.962 C 424.928 230.951 429.22 230.945 433.512 230.943 C 435.15 230.941 436.788 230.937 438.426 230.932 C 440.72 230.925 443.013 230.924 445.306 230.924 C 446.612 230.922 447.918 230.92 449.263 230.917 C 454.343 231.103 454.343 231.103 456.553 232.038 C 457.048 233.523 457.048 233.523 457.553 235.038 C 459.677 235.264 459.677 235.264 461.178 233.538 C 461.632 233.043 462.086 232.548 462.553 232.038 C 461.893 233.688 461.233 235.338 460.553 237.038 C 455.803 236.288 455.803 236.288 453.553 234.038 C 450.505 233.718 450.505 233.718 446.872 233.751 C 446.186 233.744 445.5 233.737 444.792 233.73 C 443.3 233.716 441.808 233.707 440.315 233.702 C 437.953 233.694 435.591 233.673 433.229 233.65 C 428.212 233.601 423.196 233.568 418.178 233.538 C 412.372 233.502 406.566 233.46 400.76 233.402 C 398.433 233.382 396.107 233.373 393.78 233.365 C 392.351 233.352 390.922 233.339 389.493 233.325 C 387.624 233.314 387.624 233.314 385.716 233.303 C 382.739 233.053 381.054 232.606 378.553 231.038 Z" fill="#BDA17A"/>
    <path d="M 374.553 153.038 C 375.213 153.038 375.873 153.038 376.553 153.038 C 376.883 172.178 377.213 191.318 377.553 211.038 C 380.763 211.84 382.89 212.157 386.1 212.135 C 386.945 212.132 387.789 212.129 388.659 212.126 C 389.532 212.117 390.404 212.109 391.303 212.1 C 392.192 212.096 393.08 212.091 393.995 212.086 C 396.181 212.075 398.367 212.058 400.553 212.038 C 400.883 212.698 401.213 213.358 401.553 214.038 C 392.643 214.038 383.733 214.038 374.553 214.038 C 374.553 193.908 374.553 173.778 374.553 153.038 Z" fill="#BD9F70"/>
    <path d="M 356.553 152.038 C 356.883 152.038 357.213 152.038 357.553 152.038 C 357.579 159.421 357.596 166.804 357.608 174.187 C 357.613 176.696 357.62 179.206 357.629 181.715 C 357.641 185.331 357.647 188.948 357.651 192.565 C 357.656 193.678 357.661 194.791 357.667 195.937 C 357.667 202.047 357.541 208 356.553 214.038 C 353.718 215.455 351.563 214.9 348.428 214.6 C 347.333 214.498 346.237 214.396 345.108 214.292 C 344.265 214.208 343.422 214.124 342.553 214.038 C 342.553 213.708 342.553 213.378 342.553 213.038 C 346.513 213.038 350.473 213.038 354.553 213.038 C 354.579 211.332 354.604 209.626 354.629 207.869 C 354.713 202.229 354.802 196.589 354.893 190.949 C 354.948 187.53 355.001 184.111 355.051 180.692 C 355.108 176.761 355.172 172.829 355.237 168.897 C 355.254 167.671 355.27 166.445 355.288 165.181 C 355.308 164.04 355.328 162.9 355.348 161.724 C 355.364 160.72 355.379 159.717 355.395 158.683 C 355.536 156.322 355.884 154.298 356.553 152.038 Z" fill="#AE9474"/>
    <path d="M 330.553 225.038 C 332.783 226.152 334.9 227.258 337.007 228.6 C 341.956 230.606 346.397 230.36 351.678 230.225 C 352.667 230.212 353.656 230.198 354.675 230.184 C 356.508 230.158 358.342 230.126 360.175 230.085 C 363.832 230.012 367.034 230.032 370.553 231.038 C 370.883 230.048 371.213 229.058 371.553 228.038 C 373.863 228.368 376.173 228.698 378.553 229.038 C 378.553 229.698 378.553 230.358 378.553 231.038 C 376.243 230.708 373.933 230.378 371.553 230.038 C 371.223 231.028 370.893 232.018 370.553 233.038 C 367.969 234.474 366.369 235.204 363.428 234.604 C 360.299 233.988 357.349 233.887 354.169 233.798 C 339.591 233.348 339.591 233.348 333.553 229.038 C 331.491 226.788 331.491 226.788 330.553 225.038 Z" fill="#BCA679"/>
    <path d="M 414.553 192.038 C 415.543 192.368 416.533 192.698 417.553 193.038 C 416.749 193.656 415.945 194.275 415.116 194.913 C 411.904 197.576 411.632 198.201 411.241 202.35 C 411.602 206.613 412.573 208.058 415.553 211.038 C 418.018 212.27 419.706 212.195 422.462 212.243 C 423.483 212.263 424.504 212.283 425.556 212.303 C 426.661 212.32 427.766 212.337 428.905 212.354 C 430.034 212.375 431.163 212.396 432.327 212.417 C 435.944 212.483 439.561 212.541 443.178 212.6 C 445.626 212.643 448.074 212.687 450.522 212.731 C 456.533 212.838 462.543 212.94 468.553 213.038 C 468.553 213.368 468.553 213.698 468.553 214.038 C 461.116 214.19 453.678 214.295 446.239 214.367 C 443.709 214.397 441.18 214.438 438.65 214.49 C 435.011 214.563 431.373 214.597 427.733 214.624 C 426.605 214.655 425.476 214.685 424.314 214.717 C 415.537 214.721 415.537 214.721 411.859 211.251 C 409.142 207.464 408.138 204.672 408.553 200.038 C 410.056 195.98 410.935 194.45 414.553 192.038 Z" fill="#B8A07C"/>
    <path d="M 234.553 272.038 C 235.193 272.718 235.832 273.399 236.491 274.1 C 242.45 280.042 248.657 285.739 257.331 286.268 C 258.718 286.264 260.104 286.25 261.491 286.225 C 262.181 286.224 262.872 286.224 263.583 286.223 C 267.669 286.188 271.545 285.822 275.553 285.038 C 269.366 289.945 263.208 289.641 255.553 289.038 C 247.862 287.33 241.677 282.968 236.553 277.038 C 235.303 274.284 235.303 274.284 234.553 272.038 Z M 269.553 283.038 C 269.883 283.698 270.213 284.358 270.553 285.038 C 269.893 284.708 269.233 284.378 268.553 284.038 C 268.883 283.708 269.213 283.378 269.553 283.038 Z M 266.553 285.038 C 268.553 286.038 268.553 286.038 268.553 286.038 L 266.553 285.038 Z" fill="#B6A075"/>
    <path d="M 268.553 185.038 C 269.213 185.698 269.873 186.358 270.553 187.038 C 269.563 187.368 268.573 187.698 267.553 188.038 C 266.559 191.021 266.358 193.238 266.237 196.362 C 266.195 197.39 266.153 198.418 266.11 199.477 C 266.071 200.549 266.031 201.621 265.991 202.725 C 265.948 203.809 265.905 204.892 265.86 206.008 C 265.754 208.685 265.652 211.361 265.553 214.038 C 264.285 214.539 263.013 215.034 261.741 215.526 C 261.033 215.802 260.326 216.078 259.596 216.363 C 257.173 217.163 255.088 217.275 252.553 217.038 C 254.866 214.725 256.033 214.542 259.178 213.913 C 259.996 213.745 260.813 213.577 261.655 213.405 C 262.282 213.284 262.908 213.162 263.553 213.038 C 263.53 211.819 263.507 210.601 263.483 209.346 C 263.464 207.723 263.446 206.099 263.428 204.475 C 263.412 203.675 263.395 202.875 263.378 202.051 C 263.332 196.398 263.379 190.631 267.178 186.1 C 267.632 185.749 268.086 185.399 268.553 185.038 Z" fill="#B8A078"/>
    <path d="M 321.553 169.038 C 331.182 172.557 337.193 178.875 341.553 188.038 C 343.173 191.981 343.783 194.892 342.553 199.038 C 341.716 196.747 340.884 194.456 340.053 192.163 C 339.815 191.512 339.577 190.861 339.331 190.19 C 337.553 185.264 337.553 185.264 337.553 183.038 C 335.903 182.708 334.253 182.378 332.553 182.038 C 332.883 181.048 333.213 180.058 333.553 179.038 C 332.563 179.038 331.573 179.038 330.553 179.038 C 330.12 178.295 329.687 177.553 329.241 176.788 C 327.195 173.453 324.839 172.082 321.553 170.038 C 321.553 169.708 321.553 169.378 321.553 169.038 Z" fill="#C1A683"/>
    <path d="M 283.553 266.038 C 284.543 266.038 285.533 266.038 286.553 266.038 C 287.333 272.118 284.816 276.14 281.553 281.038 C 279.366 283.6 279.366 283.6 277.553 285.038 C 276.893 285.038 276.233 285.038 275.553 285.038 C 276.553 282.038 276.553 282.038 278.991 279.788 C 282.087 276.465 282.613 274.399 283.553 270.038 C 282.893 270.038 282.233 270.038 281.553 270.038 C 282.213 268.718 282.873 267.398 283.553 266.038 Z" fill="#B49B79"/>
    <path d="M 251.553 219.038 C 251.303 220.913 251.303 220.913 250.553 223.038 C 248.928 223.975 248.928 223.975 246.553 225.038 C 245.308 225.847 244.08 226.683 242.866 227.538 C 242.264 227.96 241.662 228.383 241.042 228.819 C 239.408 229.987 239.408 229.987 238.553 232.038 C 237.893 232.038 237.233 232.038 236.553 232.038 C 238.759 226.823 241.914 223.002 246.741 220.163 C 249.553 219.038 249.553 219.038 251.553 219.038 Z" fill="#C9B080"/>
    <path d="M 235.553 232.038 C 237.142 235.215 236.553 238.531 236.553 242.038 C 233.339 245.038 233.339 245.038 230.553 245.038 C 231.069 239.756 232.808 236.465 235.553 232.038 Z" fill="#C5AE73"/>
    <path d="M 328.116 218.226 C 330.554 219.038 330.554 219.038 332.554 221.038 C 332.179 223.163 332.179 223.163 331.554 225.038 C 328.554 224.038 328.554 224.038 327.054 222.476 C 325.539 220.692 325.539 220.692 322.554 221.038 C 324.409 218.598 324.969 217.995 328.116 218.226 Z" fill="#C4AA80"/>
    <path d="M 402.553 210.038 C 403.213 211.358 403.873 212.678 404.553 214.038 C 402.153 215.238 400.66 215.152 397.983 215.135 C 397.087 215.132 396.191 215.129 395.268 215.126 C 394.331 215.117 393.394 215.109 392.428 215.1 C 391.484 215.096 390.539 215.091 389.565 215.086 C 387.228 215.075 384.891 215.058 382.553 215.038 C 382.553 214.708 382.553 214.378 382.553 214.038 C 388.493 213.708 394.433 213.378 400.553 213.038 C 399.893 212.378 399.233 211.718 398.553 211.038 C 400.553 210.038 400.553 210.038 402.553 210.038 Z" fill="#CEAF7B"/>
    <path d="M 414.553 192.038 C 415.543 192.368 416.533 192.698 417.553 193.038 C 416.77 193.512 415.986 193.986 415.178 194.475 C 411.622 197.947 411.24 201.242 410.553 206.038 C 409.893 205.708 409.233 205.378 408.553 205.038 C 408.923 197.776 408.923 197.776 412.116 194.038 C 412.92 193.378 413.725 192.718 414.553 192.038 Z" fill="#B69774"/>
    <path d="M 447.553 232.038 C 450.523 232.038 453.493 232.038 456.553 232.038 C 456.883 233.028 457.213 234.018 457.553 235.038 C 459.677 235.264 459.677 235.264 461.178 233.538 C 461.632 233.043 462.086 232.548 462.553 232.038 C 461.893 233.688 461.233 235.338 460.553 237.038 C 455.803 236.288 455.803 236.288 453.553 234.038 C 451.565 233.64 449.564 233.3 447.553 233.038 C 447.553 232.708 447.553 232.378 447.553 232.038 Z" fill="#AA9A72"/>
    <path d="M 455.553 176.038 C 458.201 178.685 459.835 180.765 461.553 184.038 C 461.553 185.028 461.553 186.018 461.553 187.038 C 459.903 187.038 458.253 187.038 456.553 187.038 C 457.213 186.708 457.873 186.378 458.553 186.038 C 457.563 182.738 456.573 179.438 455.553 176.038 Z" fill="#C3A87A"/>
    <path d="M 283.553 266.038 C 284.543 266.038 285.533 266.038 286.553 266.038 C 286.553 268.018 286.553 269.998 286.553 272.038 C 285.893 272.038 285.233 272.038 284.553 272.038 C 284.223 271.378 283.893 270.718 283.553 270.038 C 282.893 270.038 282.233 270.038 281.553 270.038 C 282.213 268.718 282.873 267.398 283.553 266.038 Z" fill="#ADA285"/>
    <path d="M 373.553 142.038 C 373.883 142.038 374.213 142.038 374.553 142.038 C 374.553 144.348 374.553 146.658 374.553 149.038 C 375.213 149.038 375.873 149.038 376.553 149.038 C 376.553 150.358 376.553 151.678 376.553 153.038 C 375.563 153.368 374.573 153.698 373.553 154.038 C 373.553 150.078 373.553 146.118 373.553 142.038 Z" fill="#DBC06D"/>
    <path d="M 465.553 215.038 C 466.543 215.038 467.533 215.038 468.553 215.038 C 467.954 218.394 466.707 220.416 464.553 223.038 C 464.223 222.048 463.893 221.058 463.553 220.038 C 464.213 220.038 464.873 220.038 465.553 220.038 C 465.553 218.388 465.553 216.738 465.553 215.038 Z" fill="#D7BB88"/>
  </g>
</svg>